# xmcd
#
# Track frame offsets: 
#        150
#        19597
#        40007
#        50507
#        70415
#        87195
#        104422
#        122862
#        139042
#        154005
#        169907
#        191427
#        206935
#        225482
#        243622
#        261567
#        276200
#        293325
#        313070
#        330440
#
# Disc length: 4640 seconds
#
# Revision: 0
# Processed by: cddbd v1.5.2PL0 Copyright (c) Steve Scherf et al.
# Submitted via: ExactAudioCopy v0.99pb4
#
DISCID=23121e14
DTITLE=Kimura Yoshio And Sano Hiromi - Kettaiban! 100 [CD3)
DYEAR=2003
DGENRE=Instrumental
TTITLE0=Cape Erimo
TTITLE1=Okuhida Longing
TTITLE2=The One I Otaru
TTITLE3=Port Of Women
TTITLE4=Fog-Choked Night
TTITLE5=Kushiro Days
TTITLE6=Love Tthe City Of Sapporo
TTITLE7=Mind The Rest
TTITLE8=Scorpio Woman
TTITLE9=Summertime Shiretoko
TTITLE10=The Story Of Jindo
TTITLE11=Nagasaki Night Purple
TTITLE12=Nagasaki Was A Rainy Day
TTITLE13=Bruce Niigata
TTITLE14=Ice Storm
TTITLE15=Go Back To Busan Port
TTITLE16=One Trip Michinoku
TTITLE17=Bruce Seaport
TTITLE18=Passing Off Arrow
TTITLE19=Bruce Yanagase
EXTD=
EXTT0=
EXTT1=
EXTT2=
EXTT3=
EXTT4=
EXTT5=
EXTT6=
EXTT7=
EXTT8=
EXTT9=
EXTT10=
EXTT11=
EXTT12=
EXTT13=
EXTT14=
EXTT15=
EXTT16=
EXTT17=
EXTT18=
EXTT19=
PLAYORDER=
